solid csg.js
facet normal 0.7071067811865476 0 0.7071067811865476
outer loop
vertex 0 0 10
vertex 10 -10 0
vertex 10 10 0
endloop
endfacet
facet normal 0 -0.7071067811865476 0.7071067811865476
outer loop
vertex 0 0 10
vertex -10 -10 0
vertex 10 -10 0
endloop
endfacet
facet normal -0.7071067811865476 0 0.7071067811865476
outer loop
vertex 0 0 10
vertex -10 10 0
vertex -10 -10 0
endloop
endfacet
facet normal 0 0.7071067811865476 0.7071067811865476
outer loop
vertex 0 0 10
vertex 10 10 0
vertex -10 10 0
endloop
endfacet
facet normal 0 0 -1
outer loop
vertex -10 10 0
vertex 10 10 0
vertex 10 -10 0
endloop
endfacet
facet normal 0 0 -1
outer loop
vertex -10 10 0
vertex 10 -10 0
vertex -10 -10 0
endloop
endfacet
endsolid csg.js
