solid csg.js
facet normal -1 0 0
outer loop
vertex 0 11.8 2.8
vertex 0 11.8 0.19999999999999996
vertex 0 10.2 0.19999999999999996
endloop
endfacet
facet normal -1 0 0
outer loop
vertex 0 11.8 2.8
vertex 0 10.2 0.19999999999999996
vertex 0 10.2 2.8
endloop
endfacet
facet normal -1 0 0
outer loop
vertex 0 1 1
vertex 0 1 0
vertex 0 0 0
endloop
endfacet
facet normal -1 0 0
outer loop
vertex 0 1 1
vertex 0 0 0
vertex 0 0 1
endloop
endfacet
facet normal -1 0 0
outer loop
vertex 0 7 3
vertex 0 7 0
vertex 0 5 0
endloop
endfacet
facet normal -1 0 0
outer loop
vertex 0 7 3
vertex 0 5 0
vertex 0 5 3
endloop
endfacet
facet normal 1 0 0
outer loop
vertex 1 1 0
vertex 1 1 1
vertex 1 0 1
endloop
endfacet
facet normal 1 0 0
outer loop
vertex 1 1 0
vertex 1 0 1
vertex 1 0 0
endloop
endfacet
facet normal 1 0 0
outer loop
vertex 1 11.8 0.19999999999999996
vertex 1 11.8 2.8
vertex 1 10.2 2.8
endloop
endfacet
facet normal 1 0 0
outer loop
vertex 1 11.8 0.19999999999999996
vertex 1 10.2 2.8
vertex 1 10.2 0.19999999999999996
endloop
endfacet
facet normal 1 0 0
outer loop
vertex 1 7 0
vertex 1 7 3
vertex 1 5 3
endloop
endfacet
facet normal 1 0 0
outer loop
vertex 1 7 0
vertex 1 5 3
vertex 1 5 0
endloop
endfacet
facet normal 0 -1 0
outer loop
vertex 0 0 0
vertex 1 0 0
vertex 1 0 1
endloop
endfacet
facet normal 0 -1 0
outer loop
vertex 0 0 0
vertex 1 0 1
vertex 0 0 1
endloop
endfacet
facet normal 0 1 0
outer loop
vertex 0 1 0
vertex 0 1 1
vertex 1 1 1
endloop
endfacet
facet normal 0 1 0
outer loop
vertex 0 1 0
vertex 1 1 1
vertex 1 1 0
endloop
endfacet
facet normal 0 0 -1
outer loop
vertex 0.8000000000000003 11.8 0
vertex 0.8000000000000003 10.2 0
vertex 0.2 10.2 0
endloop
endfacet
facet normal 0 0 -1
outer loop
vertex 0.8000000000000003 11.8 0
vertex 0.2 10.2 0
vertex 0.2 11.8 0
endloop
endfacet
facet normal 0 0 -1
outer loop
vertex 11 11 0
vertex 11 10 0
vertex 10 10 0
endloop
endfacet
facet normal 0 0 -1
outer loop
vertex 11 11 0
vertex 10 10 0
vertex 10 11 0
endloop
endfacet
facet normal 0 0 -1
outer loop
vertex 1 7 0
vertex 1 5 0
vertex 0 5 0
endloop
endfacet
facet normal 0 0 -1
outer loop
vertex 1 7 0
vertex 0 5 0
vertex 0 7 0
endloop
endfacet
facet normal 0 0 -1
outer loop
vertex 1 1 0
vertex 1 0 0
vertex 0 0 0
endloop
endfacet
facet normal 0 0 -1
outer loop
vertex 1 1 0
vertex 0 0 0
vertex 0 1 0
endloop
endfacet
facet normal 0 0 1
outer loop
vertex 1 0 1
vertex 1 1 1
vertex 0 1 1
endloop
endfacet
facet normal 0 0 1
outer loop
vertex 1 0 1
vertex 0 1 1
vertex 0 0 1
endloop
endfacet
facet normal 0 0 1
outer loop
vertex 11 10 1
vertex 11 11 1
vertex 10 11 1
endloop
endfacet
facet normal 0 0 1
outer loop
vertex 11 10 1
vertex 10 11 1
vertex 10 10 1
endloop
endfacet
facet normal 0 -1 0
outer loop
vertex 0 5 0
vertex 1 5 0
vertex 1 5 3
endloop
endfacet
facet normal 0 -1 0
outer loop
vertex 0 5 0
vertex 1 5 3
vertex 0 5 3
endloop
endfacet
facet normal 0 1 0
outer loop
vertex 0 7 0
vertex 0 7 3
vertex 1 7 3
endloop
endfacet
facet normal 0 1 0
outer loop
vertex 0 7 0
vertex 1 7 3
vertex 1 7 0
endloop
endfacet
facet normal 0 0 1
outer loop
vertex 1 5 3
vertex 1 7 3
vertex 0 7 3
endloop
endfacet
facet normal 0 0 1
outer loop
vertex 1 5 3
vertex 0 7 3
vertex 0 5 3
endloop
endfacet
facet normal 0 0 1
outer loop
vertex 0.8000000000000003 10.2 3
vertex 0.8000000000000003 11.8 3
vertex 0.2 11.8 3
endloop
endfacet
facet normal 0 0 1
outer loop
vertex 0.8000000000000003 10.2 3
vertex 0.2 11.8 3
vertex 0.2 10.2 3
endloop
endfacet
facet normal -1 0 0
outer loop
vertex 4.5 4.5 -0.5
vertex 4.5 4.5 0.5
vertex 4.5 5.5 0.5
endloop
endfacet
facet normal -1 0 0
outer loop
vertex 4.5 4.5 -0.5
vertex 4.5 5.5 0.5
vertex 4.5 5.5 -0.5
endloop
endfacet
facet normal 1 0 0
outer loop
vertex 5.5 4.5 -0.5
vertex 5.5 5.5 -0.5
vertex 5.5 5.5 0.5
endloop
endfacet
facet normal 1 0 0
outer loop
vertex 5.5 4.5 -0.5
vertex 5.5 5.5 0.5
vertex 5.5 4.5 0.5
endloop
endfacet
facet normal 0 -1 0
outer loop
vertex 4.5 4.5 -0.5
vertex 5.5 4.5 -0.5
vertex 5.5 4.5 0.5
endloop
endfacet
facet normal 0 -1 0
outer loop
vertex 4.5 4.5 -0.5
vertex 5.5 4.5 0.5
vertex 4.5 4.5 0.5
endloop
endfacet
facet normal 0 1 0
outer loop
vertex 4.5 5.5 -0.5
vertex 4.5 5.5 0.5
vertex 5.5 5.5 0.5
endloop
endfacet
facet normal 0 1 0
outer loop
vertex 4.5 5.5 -0.5
vertex 5.5 5.5 0.5
vertex 5.5 5.5 -0.5
endloop
endfacet
facet normal 0 0 -1
outer loop
vertex 4.5 4.5 -0.5
vertex 4.5 5.5 -0.5
vertex 5.5 5.5 -0.5
endloop
endfacet
facet normal 0 0 -1
outer loop
vertex 4.5 4.5 -0.5
vertex 5.5 5.5 -0.5
vertex 5.5 4.5 -0.5
endloop
endfacet
facet normal 0 0 1
outer loop
vertex 4.5 4.5 0.5
vertex 5.5 4.5 0.5
vertex 5.5 5.5 0.5
endloop
endfacet
facet normal 0 0 1
outer loop
vertex 4.5 4.5 0.5
vertex 5.5 5.5 0.5
vertex 4.5 5.5 0.5
endloop
endfacet
facet normal -1 0 0
outer loop
vertex 10 10 0
vertex 10 10 1
vertex 10 11 1
endloop
endfacet
facet normal -1 0 0
outer loop
vertex 10 10 0
vertex 10 11 1
vertex 10 11 0
endloop
endfacet
facet normal 1 0 0
outer loop
vertex 11 10 0
vertex 11 11 0
vertex 11 11 1
endloop
endfacet
facet normal 1 0 0
outer loop
vertex 11 10 0
vertex 11 11 1
vertex 11 10 1
endloop
endfacet
facet normal 0 -1 0
outer loop
vertex 11 10 0
vertex 11 10 1
vertex 10 10 1
endloop
endfacet
facet normal 0 -1 0
outer loop
vertex 11 10 0
vertex 10 10 1
vertex 10 10 0
endloop
endfacet
facet normal 0 -1 0
outer loop
vertex 0.8 10 0.19999999999999996
vertex 0.8 10 2.8
vertex 0.2 10 2.8
endloop
endfacet
facet normal 0 -1 0
outer loop
vertex 0.8 10 0.19999999999999996
vertex 0.2 10 2.8
vertex 0.2 10 0.19999999999999996
endloop
endfacet
facet normal 0 1 0
outer loop
vertex 10 11 0
vertex 10 11 1
vertex 11 11 1
endloop
endfacet
facet normal 0 1 0
outer loop
vertex 10 11 0
vertex 11 11 1
vertex 11 11 0
endloop
endfacet
facet normal -0.35740674433659325 -0.8628562094610168 -0.3574067443365933
outer loop
vertex 0.2 10 0.19999999999999996
vertex 0.05857864376269051 10.05857864376269 0.19999999999999996
vertex 0.09999999999999998 10.1 0.05857864376269051
endloop
endfacet
facet normal -0.35740674433659325 -0.8628562094610168 -0.3574067443365933
outer loop
vertex 0.2 10 0.19999999999999996
vertex 0.09999999999999998 10.1 0.05857864376269051
vertex 0.2 10.05857864376269 0.05857864376269051
endloop
endfacet
facet normal -0.15655801081562148 -0.3779644730092278 -0.9124869568340758
outer loop
vertex 0.2 10.05857864376269 0.05857864376269051
vertex 0.09999999999999998 10.1 0.05857864376269051
vertex 0.2 10.2 0
endloop
endfacet
facet normal -0.8628562094610169 -0.3574067443365928 -0.3574067443365935
outer loop
vertex 0.05857864376269051 10.05857864376269 0.19999999999999996
vertex 0 10.2 0.19999999999999996
vertex 0.05857864376269051 10.2 0.05857864376269051
endloop
endfacet
facet normal -0.8628562094610169 -0.3574067443365928 -0.3574067443365935
outer loop
vertex 0.05857864376269051 10.05857864376269 0.19999999999999996
vertex 0.05857864376269051 10.2 0.05857864376269051
vertex 0.09999999999999998 10.1 0.05857864376269051
endloop
endfacet
facet normal -0.3779644730092274 -0.15655801081562168 -0.9124869568340759
outer loop
vertex 0.09999999999999998 10.1 0.05857864376269051
vertex 0.05857864376269051 10.2 0.05857864376269051
vertex 0.2 10.2 0
endloop
endfacet
facet normal 0 -0.9238795325112868 -0.3826834323650896
outer loop
vertex 0.8 10.05857864376269 0.05857864376269051
vertex 0.8 10 0.19999999999999996
vertex 0.2 10 0.19999999999999996
endloop
endfacet
facet normal 0 -0.9238795325112868 -0.3826834323650896
outer loop
vertex 0.8 10.05857864376269 0.05857864376269051
vertex 0.2 10 0.19999999999999996
vertex 0.2 10.05857864376269 0.05857864376269051
endloop
endfacet
facet normal 0 -0.3826834323650901 -0.9238795325112867
outer loop
vertex 0.8000000000000003 10.2 0
vertex 0.8 10.05857864376269 0.05857864376269051
vertex 0.2 10.05857864376269 0.05857864376269051
endloop
endfacet
facet normal 0 -0.3826834323650901 -0.9238795325112867
outer loop
vertex 0.8000000000000003 10.2 0
vertex 0.2 10.05857864376269 0.05857864376269051
vertex 0.2 10.2 0
endloop
endfacet
facet normal 0.8628562094610166 -0.3574067443365937 -0.35740674433659336
outer loop
vertex 1 10.2 0.19999999999999996
vertex 0.9414213562373095 10.05857864376269 0.19999999999999996
vertex 0.8999999999999999 10.1 0.05857864376269051
endloop
endfacet
facet normal 0.8628562094610166 -0.3574067443365937 -0.35740674433659336
outer loop
vertex 1 10.2 0.19999999999999996
vertex 0.8999999999999999 10.1 0.05857864376269051
vertex 0.9414213562373095 10.2 0.05857864376269051
endloop
endfacet
facet normal 0.3779644730092274 -0.15655801081562162 -0.9124869568340759
outer loop
vertex 0.9414213562373095 10.2 0.05857864376269051
vertex 0.8999999999999999 10.1 0.05857864376269051
vertex 0.8000000000000003 10.2 0
endloop
endfacet
facet normal 0.3574067443365918 -0.8628562094610174 -0.3574067443365933
outer loop
vertex 0.9414213562373095 10.05857864376269 0.19999999999999996
vertex 0.8 10 0.19999999999999996
vertex 0.8 10.05857864376269 0.05857864376269051
endloop
endfacet
facet normal 0.3574067443365918 -0.8628562094610174 -0.3574067443365933
outer loop
vertex 0.9414213562373095 10.05857864376269 0.19999999999999996
vertex 0.8 10.05857864376269 0.05857864376269051
vertex 0.8999999999999999 10.1 0.05857864376269051
endloop
endfacet
facet normal 0.15655801081562143 -0.3779644730092272 -0.912486956834076
outer loop
vertex 0.8999999999999999 10.1 0.05857864376269051
vertex 0.8 10.05857864376269 0.05857864376269051
vertex 0.8000000000000003 10.2 0
endloop
endfacet
facet normal 0.9238795325112867 0 -0.3826834323650897
outer loop
vertex 0.9414213562373095 11.8 0.05857864376269051
vertex 1 11.8 0.19999999999999996
vertex 1 10.2 0.19999999999999996
endloop
endfacet
facet normal 0.9238795325112867 0 -0.3826834323650897
outer loop
vertex 0.9414213562373095 11.8 0.05857864376269051
vertex 1 10.2 0.19999999999999996
vertex 0.9414213562373095 10.2 0.05857864376269051
endloop
endfacet
facet normal 0.38268343236509095 0 -0.9238795325112863
outer loop
vertex 0.8000000000000003 11.8 0
vertex 0.9414213562373095 11.8 0.05857864376269051
vertex 0.9414213562373095 10.2 0.05857864376269051
endloop
endfacet
facet normal 0.38268343236509095 0 -0.9238795325112863
outer loop
vertex 0.8000000000000003 11.8 0
vertex 0.9414213562373095 10.2 0.05857864376269051
vertex 0.8000000000000003 10.2 0
endloop
endfacet
facet normal -0.38268343236508984 0 -0.9238795325112867
outer loop
vertex 0.05857864376269045 11.8 0.05857864376269051
vertex 0.2 11.8 0
vertex 0.2 10.2 0
endloop
endfacet
facet normal -0.38268343236508984 0 -0.9238795325112867
outer loop
vertex 0.05857864376269045 11.8 0.05857864376269051
vertex 0.2 10.2 0
vertex 0.05857864376269051 10.2 0.05857864376269051
endloop
endfacet
facet normal -0.9238795325112867 0 -0.3826834323650897
outer loop
vertex 0 11.8 0.19999999999999996
vertex 0.05857864376269045 11.8 0.05857864376269051
vertex 0.05857864376269051 10.2 0.05857864376269051
endloop
endfacet
facet normal -0.9238795325112867 0 -0.3826834323650897
outer loop
vertex 0 11.8 0.19999999999999996
vertex 0.05857864376269051 10.2 0.05857864376269051
vertex 0 10.2 0.19999999999999996
endloop
endfacet
facet normal -0.8628562094610168 0.3574067443365929 -0.3574067443365933
outer loop
vertex 0 11.8 0.19999999999999996
vertex 0.05857864376269051 11.94142135623731 0.19999999999999996
vertex 0.09999999999999998 11.9 0.05857864376269051
endloop
endfacet
facet normal -0.8628562094610168 0.3574067443365929 -0.3574067443365933
outer loop
vertex 0 11.8 0.19999999999999996
vertex 0.09999999999999998 11.9 0.05857864376269051
vertex 0.05857864376269045 11.8 0.05857864376269051
endloop
endfacet
facet normal -0.3779644730092271 0.1565580108156214 -0.9124869568340761
outer loop
vertex 0.05857864376269045 11.8 0.05857864376269051
vertex 0.09999999999999998 11.9 0.05857864376269051
vertex 0.2 11.8 0
endloop
endfacet
facet normal -0.35740674433659353 0.8628562094610174 -0.35740674433659164
outer loop
vertex 0.05857864376269051 11.94142135623731 0.19999999999999996
vertex 0.19999999999999996 12 0.19999999999999996
vertex 0.2 11.94142135623731 0.05857864376269051
endloop
endfacet
facet normal -0.35740674433659353 0.8628562094610174 -0.35740674433659164
outer loop
vertex 0.05857864376269051 11.94142135623731 0.19999999999999996
vertex 0.2 11.94142135623731 0.05857864376269051
vertex 0.09999999999999998 11.9 0.05857864376269051
endloop
endfacet
facet normal -0.15655801081562143 0.3779644730092273 -0.912486956834076
outer loop
vertex 0.09999999999999998 11.9 0.05857864376269051
vertex 0.2 11.94142135623731 0.05857864376269051
vertex 0.2 11.8 0
endloop
endfacet
facet normal 0 0.3826834323650899 -0.9238795325112867
outer loop
vertex 0.8000000000000003 11.94142135623731 0.05857864376269051
vertex 0.8000000000000003 11.8 0
vertex 0.2 11.8 0
endloop
endfacet
facet normal 0 0.3826834323650899 -0.9238795325112867
outer loop
vertex 0.8000000000000003 11.94142135623731 0.05857864376269051
vertex 0.2 11.8 0
vertex 0.2 11.94142135623731 0.05857864376269051
endloop
endfacet
facet normal 0 0.9238795325112868 -0.38268343236508967
outer loop
vertex 0.8 12 0.19999999999999996
vertex 0.8000000000000003 11.94142135623731 0.05857864376269051
vertex 0.2 11.94142135623731 0.05857864376269051
endloop
endfacet
facet normal 0 0.9238795325112868 -0.38268343236508967
outer loop
vertex 0.8 12 0.19999999999999996
vertex 0.2 11.94142135623731 0.05857864376269051
vertex 0.19999999999999996 12 0.19999999999999996
endloop
endfacet
facet normal 0.3574067443365931 0.8628562094610168 -0.3574067443365933
outer loop
vertex 0.8 12 0.19999999999999996
vertex 0.9414213562373095 11.94142135623731 0.19999999999999996
vertex 0.8999999999999999 11.9 0.05857864376269051
endloop
endfacet
facet normal 0.3574067443365931 0.8628562094610168 -0.3574067443365933
outer loop
vertex 0.8 12 0.19999999999999996
vertex 0.8999999999999999 11.9 0.05857864376269051
vertex 0.8000000000000003 11.94142135623731 0.05857864376269051
endloop
endfacet
facet normal 0.15655801081562146 0.37796447300922714 -0.912486956834076
outer loop
vertex 0.8000000000000003 11.94142135623731 0.05857864376269051
vertex 0.8999999999999999 11.9 0.05857864376269051
vertex 0.8000000000000003 11.8 0
endloop
endfacet
facet normal 0.8628562094610169 0.3574067443365928 -0.35740674433659336
outer loop
vertex 0.9414213562373095 11.94142135623731 0.19999999999999996
vertex 1 11.8 0.19999999999999996
vertex 0.9414213562373095 11.8 0.05857864376269051
endloop
endfacet
facet normal 0.8628562094610169 0.3574067443365928 -0.35740674433659336
outer loop
vertex 0.9414213562373095 11.94142135623731 0.19999999999999996
vertex 0.9414213562373095 11.8 0.05857864376269051
vertex 0.8999999999999999 11.9 0.05857864376269051
endloop
endfacet
facet normal 0.3779644730092271 0.15655801081562154 -0.912486956834076
outer loop
vertex 0.8999999999999999 11.9 0.05857864376269051
vertex 0.9414213562373095 11.8 0.05857864376269051
vertex 0.8000000000000003 11.8 0
endloop
endfacet
facet normal 0 1 0
outer loop
vertex 0.8 12 2.8
vertex 0.8 12 0.19999999999999996
vertex 0.19999999999999996 12 0.19999999999999996
endloop
endfacet
facet normal 0 1 0
outer loop
vertex 0.8 12 2.8
vertex 0.19999999999999996 12 0.19999999999999996
vertex 0.19999999999999996 12 2.8
endloop
endfacet
facet normal -0.3826834323650896 0.9238795325112867 0
outer loop
vertex 0.05857864376269051 11.94142135623731 2.8
vertex 0.19999999999999996 12 2.8
vertex 0.19999999999999996 12 0.19999999999999996
endloop
endfacet
facet normal -0.3826834323650896 0.9238795325112867 0
outer loop
vertex 0.05857864376269051 11.94142135623731 2.8
vertex 0.19999999999999996 12 0.19999999999999996
vertex 0.05857864376269051 11.94142135623731 0.19999999999999996
endloop
endfacet
facet normal -0.9238795325112859 0.38268343236509184 0
outer loop
vertex 0 11.8 2.8
vertex 0.05857864376269051 11.94142135623731 2.8
vertex 0.05857864376269051 11.94142135623731 0.19999999999999996
endloop
endfacet
facet normal -0.9238795325112859 0.38268343236509184 0
outer loop
vertex 0 11.8 2.8
vertex 0.05857864376269051 11.94142135623731 0.19999999999999996
vertex 0 11.8 0.19999999999999996
endloop
endfacet
facet normal -0.9238795325112871 -0.3826834323650895 0
outer loop
vertex 0.05857864376269056 10.05857864376269 2.8
vertex 0 10.2 2.8
vertex 0 10.2 0.19999999999999996
endloop
endfacet
facet normal -0.9238795325112871 -0.3826834323650895 0
outer loop
vertex 0.05857864376269056 10.05857864376269 2.8
vertex 0 10.2 0.19999999999999996
vertex 0.05857864376269051 10.05857864376269 0.19999999999999996
endloop
endfacet
facet normal -0.3826834323650896 -0.923879532511287 0
outer loop
vertex 0.2 10 2.8
vertex 0.05857864376269056 10.05857864376269 2.8
vertex 0.05857864376269051 10.05857864376269 0.19999999999999996
endloop
endfacet
facet normal -0.3826834323650896 -0.923879532511287 0
outer loop
vertex 0.2 10 2.8
vertex 0.05857864376269051 10.05857864376269 0.19999999999999996
vertex 0.2 10 0.19999999999999996
endloop
endfacet
facet normal 0.3826834323650896 -0.9238795325112868 0
outer loop
vertex 0.9414213562373095 10.05857864376269 2.8
vertex 0.8 10 2.8
vertex 0.8 10 0.19999999999999996
endloop
endfacet
facet normal 0.3826834323650896 -0.9238795325112868 0
outer loop
vertex 0.9414213562373095 10.05857864376269 2.8
vertex 0.8 10 0.19999999999999996
vertex 0.9414213562373095 10.05857864376269 0.19999999999999996
endloop
endfacet
facet normal 0.9238795325112871 -0.3826834323650895 0
outer loop
vertex 1 10.2 2.8
vertex 0.9414213562373095 10.05857864376269 2.8
vertex 0.9414213562373095 10.05857864376269 0.19999999999999996
endloop
endfacet
facet normal 0.9238795325112871 -0.3826834323650895 0
outer loop
vertex 1 10.2 2.8
vertex 0.9414213562373095 10.05857864376269 0.19999999999999996
vertex 1 10.2 0.19999999999999996
endloop
endfacet
facet normal 0.9238795325112871 0.3826834323650895 0
outer loop
vertex 0.9414213562373097 11.94142135623731 2.8
vertex 1 11.8 2.8
vertex 1 11.8 0.19999999999999996
endloop
endfacet
facet normal 0.9238795325112871 0.3826834323650895 0
outer loop
vertex 0.9414213562373097 11.94142135623731 2.8
vertex 1 11.8 0.19999999999999996
vertex 0.9414213562373095 11.94142135623731 0.19999999999999996
endloop
endfacet
facet normal 0.3826834323650896 0.9238795325112868 0
outer loop
vertex 0.8 12 2.8
vertex 0.9414213562373097 11.94142135623731 2.8
vertex 0.9414213562373095 11.94142135623731 0.19999999999999996
endloop
endfacet
facet normal 0.3826834323650896 0.9238795325112868 0
outer loop
vertex 0.8 12 2.8
vertex 0.9414213562373095 11.94142135623731 0.19999999999999996
vertex 0.8 12 0.19999999999999996
endloop
endfacet
facet normal -0.3574067443365933 -0.8628562094610168 0.35740674433659314
outer loop
vertex 0.2 10.05857864376269 2.94142135623731
vertex 0.09999999999999998 10.1 2.94142135623731
vertex 0.05857864376269056 10.05857864376269 2.8
endloop
endfacet
facet normal -0.3574067443365933 -0.8628562094610168 0.35740674433659314
outer loop
vertex 0.2 10.05857864376269 2.94142135623731
vertex 0.05857864376269056 10.05857864376269 2.8
vertex 0.2 10 2.8
endloop
endfacet
facet normal -0.15655801081562185 -0.3779644730092278 0.9124869568340758
outer loop
vertex 0.2 10.2 3
vertex 0.09999999999999998 10.1 2.94142135623731
vertex 0.2 10.05857864376269 2.94142135623731
endloop
endfacet
facet normal -0.8628562094610166 -0.35740674433659364 0.3574067443365933
outer loop
vertex 0.09999999999999998 10.1 2.94142135623731
vertex 0.05857864376269051 10.2 2.94142135623731
vertex 0 10.2 2.8
endloop
endfacet
facet normal -0.8628562094610166 -0.35740674433659364 0.3574067443365933
outer loop
vertex 0.09999999999999998 10.1 2.94142135623731
vertex 0 10.2 2.8
vertex 0.05857864376269056 10.05857864376269 2.8
endloop
endfacet
facet normal -0.3779644730092278 -0.15655801081562226 0.9124869568340757
outer loop
vertex 0.2 10.2 3
vertex 0.05857864376269051 10.2 2.94142135623731
vertex 0.09999999999999998 10.1 2.94142135623731
endloop
endfacet
facet normal 0 -0.3826834323650899 0.9238795325112867
outer loop
vertex 0.8000000000000003 10.05857864376269 2.94142135623731
vertex 0.8000000000000003 10.2 3
vertex 0.2 10.2 3
endloop
endfacet
facet normal 0 -0.3826834323650899 0.9238795325112867
outer loop
vertex 0.8000000000000003 10.05857864376269 2.94142135623731
vertex 0.2 10.2 3
vertex 0.2 10.05857864376269 2.94142135623731
endloop
endfacet
facet normal 0 -0.9238795325112868 0.3826834323650896
outer loop
vertex 0.8 10 2.8
vertex 0.8000000000000003 10.05857864376269 2.94142135623731
vertex 0.2 10.05857864376269 2.94142135623731
endloop
endfacet
facet normal 0 -0.9238795325112868 0.3826834323650896
outer loop
vertex 0.8 10 2.8
vertex 0.2 10.05857864376269 2.94142135623731
vertex 0.2 10 2.8
endloop
endfacet
facet normal 0.8628562094610169 -0.35740674433659336 0.35740674433659275
outer loop
vertex 0.9414213562373095 10.2 2.94142135623731
vertex 0.8999999999999999 10.1 2.94142135623731
vertex 0.9414213562373095 10.05857864376269 2.8
endloop
endfacet
facet normal 0.8628562094610169 -0.35740674433659336 0.35740674433659275
outer loop
vertex 0.9414213562373095 10.2 2.94142135623731
vertex 0.9414213562373095 10.05857864376269 2.8
vertex 1 10.2 2.8
endloop
endfacet
facet normal 0.37796447300922686 -0.15655801081562187 0.912486956834076
outer loop
vertex 0.8000000000000003 10.2 3
vertex 0.8999999999999999 10.1 2.94142135623731
vertex 0.9414213562373095 10.2 2.94142135623731
endloop
endfacet
facet normal 0.35740674433659164 -0.8628562094610174 0.3574067443365936
outer loop
vertex 0.8999999999999999 10.1 2.94142135623731
vertex 0.8000000000000003 10.05857864376269 2.94142135623731
vertex 0.8 10 2.8
endloop
endfacet
facet normal 0.35740674433659164 -0.8628562094610174 0.3574067443365936
outer loop
vertex 0.8999999999999999 10.1 2.94142135623731
vertex 0.8 10 2.8
vertex 0.9414213562373095 10.05857864376269 2.8
endloop
endfacet
facet normal 0.15655801081562185 -0.37796447300922753 0.9124869568340758
outer loop
vertex 0.8000000000000003 10.2 3
vertex 0.8000000000000003 10.05857864376269 2.94142135623731
vertex 0.8999999999999999 10.1 2.94142135623731
endloop
endfacet
facet normal -0.38268343236508967 0 0.9238795325112868
outer loop
vertex 0.2 11.8 3
vertex 0.05857864376269045 11.8 2.94142135623731
vertex 0.05857864376269051 10.2 2.94142135623731
endloop
endfacet
facet normal -0.38268343236508967 0 0.9238795325112868
outer loop
vertex 0.2 11.8 3
vertex 0.05857864376269051 10.2 2.94142135623731
vertex 0.2 10.2 3
endloop
endfacet
facet normal 0.3826834323650905 0 0.9238795325112866
outer loop
vertex 0.9414213562373097 11.8 2.94142135623731
vertex 0.8000000000000003 11.8 3
vertex 0.8000000000000003 10.2 3
endloop
endfacet
facet normal 0.3826834323650905 0 0.9238795325112866
outer loop
vertex 0.9414213562373097 11.8 2.94142135623731
vertex 0.8000000000000003 10.2 3
vertex 0.9414213562373095 10.2 2.94142135623731
endloop
endfacet
facet normal 0.9238795325112868 0 0.3826834323650896
outer loop
vertex 1 11.8 2.8
vertex 0.9414213562373097 11.8 2.94142135623731
vertex 0.9414213562373095 10.2 2.94142135623731
endloop
endfacet
facet normal 0.9238795325112868 0 0.3826834323650896
outer loop
vertex 1 11.8 2.8
vertex 0.9414213562373095 10.2 2.94142135623731
vertex 1 10.2 2.8
endloop
endfacet
facet normal -0.9238795325112868 0 0.38268343236508956
outer loop
vertex 0.05857864376269045 11.8 2.94142135623731
vertex 0 11.8 2.8
vertex 0 10.2 2.8
endloop
endfacet
facet normal -0.9238795325112868 0 0.38268343236508956
outer loop
vertex 0.05857864376269045 11.8 2.94142135623731
vertex 0 10.2 2.8
vertex 0.05857864376269051 10.2 2.94142135623731
endloop
endfacet
facet normal -0.8628562094610172 0.3574067443365928 0.3574067443365929
outer loop
vertex 0.05857864376269045 11.8 2.94142135623731
vertex 0.09999999999999998 11.9 2.94142135623731
vertex 0.05857864376269051 11.94142135623731 2.8
endloop
endfacet
facet normal -0.8628562094610172 0.3574067443365928 0.3574067443365929
outer loop
vertex 0.05857864376269045 11.8 2.94142135623731
vertex 0.05857864376269051 11.94142135623731 2.8
vertex 0 11.8 2.8
endloop
endfacet
facet normal -0.3779644730092273 0.15655801081562148 0.9124869568340759
outer loop
vertex 0.2 11.8 3
vertex 0.09999999999999998 11.9 2.94142135623731
vertex 0.05857864376269045 11.8 2.94142135623731
endloop
endfacet
facet normal -0.35740674433659336 0.8628562094610167 0.3574067443365933
outer loop
vertex 0.09999999999999998 11.9 2.94142135623731
vertex 0.2 11.94142135623731 2.94142135623731
vertex 0.19999999999999996 12 2.8
endloop
endfacet
facet normal -0.35740674433659336 0.8628562094610167 0.3574067443365933
outer loop
vertex 0.09999999999999998 11.9 2.94142135623731
vertex 0.19999999999999996 12 2.8
vertex 0.05857864376269051 11.94142135623731 2.8
endloop
endfacet
facet normal -0.156558010815621 0.3779644730092268 0.9124869568340762
outer loop
vertex 0.2 11.8 3
vertex 0.2 11.94142135623731 2.94142135623731
vertex 0.09999999999999998 11.9 2.94142135623731
endloop
endfacet
facet normal 0 0.923879532511287 0.3826834323650896
outer loop
vertex 0.8 11.94142135623731 2.94142135623731
vertex 0.8 12 2.8
vertex 0.19999999999999996 12 2.8
endloop
endfacet
facet normal 0 0.923879532511287 0.3826834323650896
outer loop
vertex 0.8 11.94142135623731 2.94142135623731
vertex 0.19999999999999996 12 2.8
vertex 0.2 11.94142135623731 2.94142135623731
endloop
endfacet
facet normal 0 0.3826834323650893 0.9238795325112871
outer loop
vertex 0.8000000000000003 11.8 3
vertex 0.8 11.94142135623731 2.94142135623731
vertex 0.2 11.94142135623731 2.94142135623731
endloop
endfacet
facet normal 0 0.3826834323650893 0.9238795325112871
outer loop
vertex 0.8000000000000003 11.8 3
vertex 0.2 11.94142135623731 2.94142135623731
vertex 0.2 11.8 3
endloop
endfacet
facet normal 0.3574067443365933 0.8628562094610168 0.35740674433659325
outer loop
vertex 0.8 11.94142135623731 2.94142135623731
vertex 0.8999999999999999 11.9 2.94142135623731
vertex 0.9414213562373097 11.94142135623731 2.8
endloop
endfacet
facet normal 0.3574067443365933 0.8628562094610168 0.35740674433659325
outer loop
vertex 0.8 11.94142135623731 2.94142135623731
vertex 0.9414213562373097 11.94142135623731 2.8
vertex 0.8 12 2.8
endloop
endfacet
facet normal 0.15655801081562254 0.3779644730092267 0.912486956834076
outer loop
vertex 0.8000000000000003 11.8 3
vertex 0.8999999999999999 11.9 2.94142135623731
vertex 0.8 11.94142135623731 2.94142135623731
endloop
endfacet
facet normal 0.8628562094610168 0.35740674433659353 0.357406744336593
outer loop
vertex 0.8999999999999999 11.9 2.94142135623731
vertex 0.9414213562373097 11.8 2.94142135623731
vertex 1 11.8 2.8
endloop
endfacet
facet normal 0.8628562094610168 0.35740674433659353 0.357406744336593
outer loop
vertex 0.8999999999999999 11.9 2.94142135623731
vertex 1 11.8 2.8
vertex 0.9414213562373097 11.94142135623731 2.8
endloop
endfacet
facet normal 0.37796447300922686 0.15655801081562098 0.9124869568340762
outer loop
vertex 0.8000000000000003 11.8 3
vertex 0.9414213562373097 11.8 2.94142135623731
vertex 0.8999999999999999 11.9 2.94142135623731
endloop
endfacet
endsolid csg.js
